<svg version="1.1" id="Layer_1" xmlns="http://www.w3.org/2000/svg" xmlns:xlink="http://www.w3.org/1999/xlink" x="0px" y="0px"
	 width="100%" viewBox="0 0 1446 1316" enable-background="new 0 0 1446 1316" xml:space="preserve">
<path fill="#4263EB" opacity="1.000000" stroke="none" 
	d="
M690.000000,0.999996 
	C712.354248,1.000000 734.708435,1.000000 757.787170,1.340429 
	C809.870605,4.067595 860.644836,10.760240 910.563477,23.167940 
	C1059.758545,60.251595 1187.717407,133.427002 1289.572754,249.429214 
	C1380.893921,353.434113 1433.993652,474.329834 1445.184692,612.909790 
	C1445.619019,618.286987 1446.387329,623.637207 1447.000000,629.000000 
	C1447.000000,649.020874 1447.000000,669.041809 1446.654419,689.778442 
	C1445.592407,699.287720 1444.963135,708.089355 1444.145508,716.873535 
	C1438.678345,775.614380 1424.825562,832.347595 1402.381470,886.873291 
	C1348.332642,1018.179626 1259.237061,1120.212769 1140.526367,1196.687988 
	C1025.269409,1270.938354 898.342896,1309.268311 761.660583,1316.119751 
	C760.428772,1316.181519 759.219666,1316.696533 758.000000,1317.000000 
	C735.312439,1317.000000 712.624878,1317.000000 689.214111,1316.659668 
	C671.065002,1314.920410 653.602051,1313.875244 636.220093,1312.057129 
	C580.227234,1306.200317 525.541321,1294.164551 472.276794,1275.954834 
	C347.004608,1233.127075 239.382339,1163.531250 153.141556,1062.573608 
	C64.888580,959.260254 13.463638,840.118958 2.734311,704.084412 
	C2.362733,699.373352 1.587232,694.694092 1.000000,690.000000 
	C1.000000,669.645752 1.000000,649.291565 1.345459,628.221436 
	C3.513380,609.119202 4.644590,590.633240 7.277877,572.363770 
	C18.717014,493.000488 44.913197,418.677429 85.787651,349.733582 
	C160.148254,224.307861 265.619019,133.404922 397.104370,72.075661 
	C488.728729,29.338913 585.422668,6.694458 686.354248,1.900862 
	C687.580994,1.842599 688.785217,1.310770 690.000000,0.999996 
M511.891235,334.625061 
	C512.184570,335.403748 512.483215,336.180450 512.770508,336.961334 
	C610.876831,603.592957 708.989197,870.222351 807.017151,1136.882812 
	C808.388245,1140.612427 809.892700,1142.292114 814.295654,1142.285889 
	C921.787842,1142.132690 1029.280273,1142.166016 1136.772705,1142.166016 
	C1138.532959,1142.166016 1140.293213,1142.166138 1142.508667,1142.166138 
	C1142.508667,1139.159424 1142.508667,1136.852905 1142.508667,1134.546387 
	C1142.508667,1132.121948 1142.508667,1129.697510 1142.508667,1126.999878 
	C1138.744019,1126.999878 1135.754883,1127.035645 1132.766968,1126.994385 
	C1099.297974,1126.532227 1065.878906,1125.716553 1032.515381,1122.232422 
	C1010.383789,1119.921143 993.174316,1111.036377 983.182373,1090.883545 
	C974.850769,1074.079224 966.457764,1057.165283 959.978027,1039.604004 
	C851.552490,745.749939 743.414795,451.789734 635.330078,157.810104 
	C633.932861,154.009781 632.249634,152.898987 628.274048,152.903442 
	C520.781738,153.024109 413.289307,152.999695 305.796875,152.999695 
	C304.040375,152.999695 302.283875,152.999710 300.423645,152.999710 
	C300.423645,158.332962 300.423645,162.929001 300.423645,167.793793 
	C301.595459,167.933365 302.544617,168.129486 303.497162,168.147354 
	C316.484253,168.390869 329.496582,168.180099 342.453918,168.927109 
	C366.869659,170.334671 391.262970,172.171387 415.647980,174.057632 
	C434.140930,175.488113 448.075653,184.553970 457.131531,200.639160 
	C463.080688,211.206146 469.345978,221.765823 473.741669,233.004654 
	C486.824707,266.455353 499.053864,300.239990 511.891235,334.625061 
M481.457886,1142.178833 
	C484.602661,1142.178833 487.747467,1142.178833 491.201538,1142.178833 
	C491.201538,1136.182983 491.201538,1130.620483 491.201538,1124.704102 
	C488.452850,1124.505249 486.000580,1124.260742 483.542450,1124.160278 
	C456.486481,1123.055420 429.800995,1119.648071 403.952545,1111.188232 
	C382.464478,1104.155396 362.569305,1094.147583 347.097900,1077.273315 
	C319.649170,1047.336060 314.126038,1011.567383 323.830353,973.743347 
	C338.209686,917.697632 354.506042,862.144714 369.784363,806.326782 
	C370.947266,802.078186 373.044403,801.461609 376.823914,801.464966 
	C467.981476,801.546143 559.139160,801.528137 650.296814,801.528015 
	C652.526733,801.528015 654.756653,801.528015 657.615967,801.528015 
	C656.102295,797.255310 654.614258,794.063171 653.864929,790.706177 
	C652.708618,785.525940 649.831238,784.334106 644.681885,784.344604 
	C557.690857,784.522583 470.699341,784.474548 383.707947,784.457031 
	C381.493469,784.456604 379.279083,784.235535 376.772675,784.101807 
	C377.168884,782.285522 377.368622,781.155762 377.662903,780.051270 
	C388.370178,739.864624 399.089874,699.681335 409.800415,659.495544 
	C436.832977,558.069519 463.865173,456.643402 490.866058,355.208923 
	C491.325073,353.484406 492.007233,351.459869 491.521362,349.908539 
	C489.853943,344.584747 487.712341,339.409454 485.751495,334.177551 
	C413.178558,604.017517 342.106262,874.017639 261.764252,1142.178833 
	C335.585815,1142.178833 408.027222,1142.178833 481.457886,1142.178833 
M1015.629456,744.167969 
	C1018.416321,733.718628 1021.182373,723.263611 1023.993469,712.820740 
	C1057.669189,587.717041 1091.274780,462.594421 1125.066406,337.522064 
	C1140.521362,280.319519 1156.348755,223.217651 1171.997925,166.067551 
	C1173.147461,161.869781 1174.219604,157.650787 1175.335327,153.412796 
	C1098.534302,153.412796 1022.489502,153.412796 946.587891,153.412796 
	C946.587891,159.404526 946.587891,164.967911 946.587891,171.006073 
	C949.496216,171.006073 951.983154,170.910141 954.460815,171.020737 
	C982.674377,172.280136 1010.520996,175.833481 1037.354736,185.102600 
	C1062.395752,193.752487 1084.796021,206.607117 1100.500610,228.605698 
	C1121.595581,258.154877 1124.785889,291.216217 1116.194458,325.418518 
	C1105.622192,367.506470 1093.749756,409.267883 1082.435547,451.169434 
	C1078.622681,465.290253 1074.797974,479.407837 1070.879028,493.895264 
	C975.568176,493.895264 880.496216,493.895264 784.894287,493.895264 
	C786.429260,498.200684 788.021912,501.862915 789.017700,505.680847 
	C790.071228,509.720215 792.143677,510.953949 796.390686,510.947144 
	C884.041077,510.807037 971.691772,510.841675 1059.342407,510.841705 
	C1061.438477,510.841705 1063.534424,510.841736 1065.928467,510.841736 
	C1065.463135,512.950745 1065.198242,514.411377 1064.817139,515.841187 
	C1027.373901,656.337891 990.001038,796.853699 952.292908,937.279358 
	C949.762146,946.703979 954.490540,953.332581 957.720398,960.937744 
	C976.932190,888.938721 996.143982,816.939758 1015.629456,744.167969 
z"/>
<path fill="#FFFFFF" opacity="1.000000" stroke="none" 
	d="
M1447.000000,628.531372 
	C1446.387329,623.637207 1445.619019,618.286987 1445.184692,612.909790 
	C1433.993652,474.329834 1380.893921,353.434113 1289.572754,249.429214 
	C1187.717407,133.427002 1059.758545,60.251595 910.563477,23.167940 
	C860.644836,10.760240 809.870605,4.067595 758.255859,1.340429 
	C987.590393,1.000000 1217.180786,1.000000 1447.000000,1.000000 
	C1447.000000,210.020844 1447.000000,419.041748 1447.000000,628.531372 
z"/>
<path fill="#FFFFFF" opacity="1.000000" stroke="none" 
	d="
M689.531372,0.999996 
	C688.785217,1.310770 687.580994,1.842599 686.354248,1.900862 
	C585.422668,6.694458 488.728729,29.338913 397.104370,72.075661 
	C265.619019,133.404922 160.148254,224.307861 85.787651,349.733582 
	C44.913197,418.677429 18.717014,493.000488 7.277877,572.363770 
	C4.644590,590.633240 3.513380,609.119202 1.345459,627.752747 
	C1.000000,419.069489 1.000000,210.138947 1.000000,1.000000 
	C230.354187,1.000000 459.708435,1.000000 689.531372,0.999996 
z"/>
<path fill="#FFFFFF" opacity="1.000000" stroke="none" 
	d="
M758.468628,1317.000000 
	C759.219666,1316.696533 760.428772,1316.181519 761.660583,1316.119751 
	C898.342896,1309.268311 1025.269409,1270.938354 1140.526367,1196.687988 
	C1259.237061,1120.212769 1348.332642,1018.179626 1402.381470,886.873291 
	C1424.825562,832.347595 1438.678345,775.614380 1444.145508,716.873535 
	C1444.963135,708.089355 1445.592407,699.287720 1446.654419,690.247070 
	C1447.000000,898.930542 1447.000000,1107.861084 1447.000000,1317.000000 
	C1217.645874,1317.000000 988.291565,1317.000000 758.468628,1317.000000 
z"/>
<path fill="#FFFFFF" opacity="1.000000" stroke="none" 
	d="
M1.000000,690.468628 
	C1.587232,694.694092 2.362733,699.373352 2.734311,704.084412 
	C13.463638,840.118958 64.888580,959.260254 153.141556,1062.573608 
	C239.382339,1163.531250 347.004608,1233.127075 472.276794,1275.954834 
	C525.541321,1294.164551 580.227234,1306.200317 636.220093,1312.057129 
	C653.602051,1313.875244 671.065002,1314.920410 688.745422,1316.659668 
	C459.742950,1317.000000 230.485916,1317.000000 1.000000,1317.000000 
	C1.000000,1108.312500 1.000000,899.624878 1.000000,690.468628 
z"/>
<path fill="#FFFFFF" opacity="1.000000" stroke="none" 
	d="
M511.753937,334.259613 
	C499.053864,300.239990 486.824707,266.455353 473.741669,233.004654 
	C469.345978,221.765823 463.080688,211.206146 457.131531,200.639160 
	C448.075653,184.553970 434.140930,175.488113 415.647980,174.057632 
	C391.262970,172.171387 366.869659,170.334671 342.453918,168.927109 
	C329.496582,168.180099 316.484253,168.390869 303.497162,168.147354 
	C302.544617,168.129486 301.595459,167.933365 300.423645,167.793793 
	C300.423645,162.929001 300.423645,158.332962 300.423645,152.999710 
	C302.283875,152.999710 304.040375,152.999695 305.796875,152.999695 
	C413.289307,152.999695 520.781738,153.024109 628.274048,152.903442 
	C632.249634,152.898987 633.932861,154.009781 635.330078,157.810104 
	C743.414795,451.789734 851.552490,745.749939 959.978027,1039.604004 
	C966.457764,1057.165283 974.850769,1074.079224 983.182373,1090.883545 
	C993.174316,1111.036377 1010.383789,1119.921143 1032.515381,1122.232422 
	C1065.878906,1125.716553 1099.297974,1126.532227 1132.766968,1126.994385 
	C1135.754883,1127.035645 1138.744019,1126.999878 1142.508667,1126.999878 
	C1142.508667,1129.697510 1142.508667,1132.121948 1142.508667,1134.546387 
	C1142.508667,1136.852905 1142.508667,1139.159424 1142.508667,1142.166138 
	C1140.293213,1142.166138 1138.532959,1142.166016 1136.772705,1142.166016 
	C1029.280273,1142.166016 921.787842,1142.132690 814.295654,1142.285889 
	C809.892700,1142.292114 808.388245,1140.612427 807.017151,1136.882812 
	C708.989197,870.222351 610.876831,603.592957 512.770508,336.961334 
	C512.483215,336.180450 512.184570,335.403748 511.753937,334.259613 
z"/>
<path fill="#FBFCFF" opacity="1.000000" stroke="none" 
	d="
M480.963257,1142.178833 
	C408.027222,1142.178833 335.585815,1142.178833 261.764252,1142.178833 
	C342.106262,874.017639 413.178558,604.017517 485.751495,334.177551 
	C487.712341,339.409454 489.853943,344.584747 491.521362,349.908539 
	C492.007233,351.459869 491.325073,353.484406 490.866058,355.208923 
	C463.865173,456.643402 436.832977,558.069519 409.800415,659.495544 
	C399.089874,699.681335 388.370178,739.864624 377.662903,780.051270 
	C377.368622,781.155762 377.168884,782.285522 376.772675,784.101807 
	C379.279083,784.235535 381.493469,784.456604 383.707947,784.457031 
	C470.699341,784.474548 557.690857,784.522583 644.681885,784.344604 
	C649.831238,784.334106 652.708618,785.525940 653.864929,790.706177 
	C654.614258,794.063171 656.102295,797.255310 657.615967,801.528015 
	C654.756653,801.528015 652.526733,801.528015 650.296814,801.528015 
	C559.139160,801.528137 467.981476,801.546143 376.823914,801.464966 
	C373.044403,801.461609 370.947266,802.078186 369.784363,806.326782 
	C354.506042,862.144714 338.209686,917.697632 323.830353,973.743347 
	C314.126038,1011.567383 319.649170,1047.336060 347.097900,1077.273315 
	C362.569305,1094.147583 382.464478,1104.155396 403.952545,1111.188232 
	C429.800995,1119.648071 456.486481,1123.055420 483.542450,1124.160278 
	C486.000580,1124.260742 488.452850,1124.505249 491.201538,1124.704102 
	C491.201538,1130.620483 491.201538,1136.182983 491.201538,1142.178833 
	C487.747467,1142.178833 484.602661,1142.178833 480.963257,1142.178833 
z"/>
<path fill="#FDFDFF" opacity="1.000000" stroke="none" 
	d="
M1015.492554,744.554321 
	C996.143982,816.939758 976.932190,888.938721 957.720398,960.937744 
	C954.490540,953.332581 949.762146,946.703979 952.292908,937.279358 
	C990.001038,796.853699 1027.373901,656.337891 1064.817139,515.841187 
	C1065.198242,514.411377 1065.463135,512.950745 1065.928467,510.841736 
	C1063.534424,510.841736 1061.438477,510.841705 1059.342407,510.841705 
	C971.691772,510.841675 884.041077,510.807037 796.390686,510.947144 
	C792.143677,510.953949 790.071228,509.720215 789.017700,505.680847 
	C788.021912,501.862915 786.429260,498.200684 784.894287,493.895264 
	C880.496216,493.895264 975.568176,493.895264 1070.879028,493.895264 
	C1074.797974,479.407837 1078.622681,465.290253 1082.435547,451.169434 
	C1093.749756,409.267883 1105.622192,367.506470 1116.194458,325.418518 
	C1124.785889,291.216217 1121.595581,258.154877 1100.500610,228.605698 
	C1084.796021,206.607117 1062.395752,193.752487 1037.354736,185.102600 
	C1010.520996,175.833481 982.674377,172.280136 954.460815,171.020737 
	C951.983154,170.910141 949.496216,171.006073 946.587891,171.006073 
	C946.587891,164.967911 946.587891,159.404526 946.587891,153.412796 
	C1022.489502,153.412796 1098.534302,153.412796 1175.335327,153.412796 
	C1174.219604,157.650787 1173.147461,161.869781 1171.997925,166.067551 
	C1156.348755,223.217651 1140.521362,280.319519 1125.066406,337.522064 
	C1091.274780,462.594421 1057.669189,587.717041 1023.993469,712.820740 
	C1021.182373,723.263611 1018.416321,733.718628 1015.492554,744.554321 
z"/>
</svg>